<svg width="32" height="32" viewBox="0 0 32 32" fill="none" xmlns="http://www.w3.org/2000/svg">
<g clip-path="url(#clip0_10031_17898)">
<path d="M16 32C24.8366 32 32 24.8366 32 16C32 7.16344 24.8366 0 16 0C7.16344 0 0 7.16344 0 16C0 24.8366 7.16344 32 16 32Z" fill="#0A2845"/>
<path d="M15.9995 11.1913C15.2215 11.2091 14.4896 11.4153 13.8481 11.7655C13.2564 12.0885 12.6733 12.4816 12.087 12.8772C10.6502 13.8458 9.19273 14.8283 7.54177 14.8283H5.32992C5.14592 14.8283 4.99658 14.679 4.99658 14.495V12.0574C4.99658 11.8734 5.14592 11.724 5.32992 11.724H10.8058C11.0707 11.724 11.2298 11.4298 11.0846 11.2082L8.79777 7.71424C8.6991 7.56372 8.73792 7.36194 8.88547 7.25854L10.7966 5.92046C10.9507 5.81261 11.1637 5.8535 11.2665 6.01083L13.9418 10.0985C14.1231 10.3759 14.5539 10.2473 14.5539 9.91602V5.22298C14.5539 5.03898 14.7032 4.88965 14.8872 4.88965H17.1115C17.2955 4.88965 17.4449 5.03898 17.4449 5.22298V9.91602C17.4449 10.2473 17.8757 10.3756 18.057 10.0985L20.7323 6.01083C20.8354 5.8535 21.0481 5.81232 21.2022 5.92046L23.1133 7.25854C23.2609 7.36165 23.2997 7.56343 23.201 7.71424L20.9142 11.2082C20.769 11.4298 20.9281 11.724 21.193 11.724H26.6689C26.8529 11.724 27.0022 11.8734 27.0022 12.0574V14.495C27.0022 14.679 26.8529 14.8283 26.6689 14.8283H24.457C22.8058 14.8283 21.3486 13.8458 19.9118 12.8772C19.3252 12.4816 18.7421 12.0885 18.1507 11.7655C17.5092 11.415 16.7773 11.2091 15.9992 11.1913H15.9995Z" fill="#E8C787"/>
<path d="M19.8575 15.9565C19.8575 18.1103 18.1274 19.8563 15.9932 19.8563C13.859 19.8563 12.1289 18.1103 12.1289 15.9565C12.1289 13.8027 13.859 12.0566 15.9932 12.0566C18.1274 12.0566 19.8575 13.8027 19.8575 15.9565Z" fill="#E8C787"/>
<path d="M17.1114 27.023C17.2954 27.023 17.4447 26.8737 17.4447 26.6897V21.997C17.4447 21.6657 17.8755 21.5371 18.0568 21.8144L20.7321 25.9021C20.8352 26.0598 21.0479 26.1007 21.202 25.9928L23.1131 24.6547C23.2607 24.5516 23.2995 24.3498 23.2008 24.199L20.914 20.7051C20.7688 20.4835 20.9279 20.1893 21.1928 20.1893H26.6687C26.8527 20.1893 27.002 20.0399 27.002 19.8559V17.4183C27.002 17.2343 26.8527 17.085 26.6687 17.085H24.4568C22.8056 17.085 21.3484 18.0675 19.9116 19.0361C19.325 19.4316 18.7419 19.8248 18.1505 20.1478C17.509 20.4983 16.7771 20.7042 15.9991 20.722C15.221 20.7042 14.4891 20.498 13.8476 20.1478C13.2559 19.8245 12.6728 19.4313 12.0865 19.0361C10.6497 18.0672 9.19224 17.085 7.54128 17.085H5.32943C5.14543 17.085 4.99609 17.2343 4.99609 17.4183V19.8559C4.99609 20.0399 5.14543 20.1893 5.32943 20.1893H10.8053C11.0702 20.1893 11.2293 20.4835 11.0841 20.7051L8.79728 24.199C8.69861 24.3496 8.73743 24.5513 8.88498 24.6547L10.7961 25.9928C10.9502 26.1007 11.1632 26.0598 11.266 25.9021L13.9413 21.8144C14.1226 21.5371 14.5534 21.6657 14.5534 21.997V26.6897C14.5534 26.8737 14.7028 27.023 14.8868 27.023H17.1108H17.1114Z" fill="#E8C787"/>
</g>
<defs>
<clipPath id="clip0_10031_17898">
<rect width="32" height="32" fill="white"/>
</clipPath>
</defs>
</svg>
