<svg width="250" height="251" viewBox="0 0 250 251" fill="none" xmlns="http://www.w3.org/2000/svg">
<g clip-path="url(#clip0_372_16509)">
<path d="M221.811 47.3177C216.893 41.274 211.424 35.7053 205.474 30.674C183.755 12.3178 155.668 1.24902 124.999 1.24902C94.33 1.24902 66.1362 12.3615 44.3927 30.7802C38.4552 35.8177 32.9865 41.399 28.0802 47.449C10.674 68.8925 0.249023 96.23 0.249023 125.999C0.249023 155.768 11.3178 184.755 29.6802 206.48C34.7115 212.43 40.2865 217.905 46.324 222.817C67.7863 240.28 95.1737 250.749 124.999 250.749C154.824 250.749 182.105 240.324 203.542 222.917C209.592 218.011 215.18 212.549 220.211 206.605C238.636 184.867 249.749 156.73 249.749 125.999C249.749 95.2675 239.286 68.7925 221.811 47.324V47.3115V47.3177Z" fill="#E7C585"/>
<path d="M164.157 116.91C164.482 107.916 159.119 99.5725 150.413 95.585L149.013 94.9413C143.519 92.41 137.457 91.0975 131.319 91.0975H99.7631C98.1131 91.0975 96.5381 91.7038 95.3756 92.7913C94.2131 93.8788 93.5631 95.3413 93.5694 96.8788L93.9944 157.973C94.0131 160.654 96.3631 162.829 99.2631 162.829H112.188C114.451 162.829 116.294 161.154 116.338 159.06L116.751 140.666H125.151L139.719 161.504C140.294 162.329 141.294 162.829 142.357 162.829H157.188C159.457 162.829 161.482 161.31 161.813 159.048C161.963 158.016 161.651 156.973 161.063 156.116L148.363 137.529L148.876 137.335C157.851 133.904 163.813 125.916 164.151 116.923L164.163 116.91H164.157ZM140.944 117.348C140.926 117.541 140.944 117.86 140.888 118.041C140.907 118.348 140.669 118.729 140.594 119.029C140.507 119.366 140.563 119.254 140.357 119.498C140.313 119.691 140.051 119.91 140.007 120.104C139.863 120.635 139.538 120.929 139.126 121.298C138.994 121.416 138.801 121.71 138.657 121.798C138.463 122.104 138.332 122.266 138.013 122.354C137.926 122.416 137.751 122.635 137.663 122.666C137.338 122.973 136.988 123.21 136.576 123.429C135.632 123.916 134.751 124.166 133.732 124.31C132.969 124.416 132.213 124.429 131.438 124.429C129.594 124.429 127.638 124.548 125.744 124.385C125.351 124.354 124.757 124.46 124.363 124.441C123.963 124.423 123.626 124.473 123.219 124.441C122.601 124.423 120.788 124.529 120.169 124.441C118.113 124.148 116.876 124.91 116.826 124.029C116.738 122.748 116.782 120.554 116.769 119.366C116.757 117.791 116.707 116.61 116.813 115.073C116.901 113.716 116.813 112.316 116.769 110.948C116.713 109.316 116.594 108.123 117.063 108.179C118.038 108.298 120.682 108.135 121.644 108.21C122.251 108.254 123.057 108.198 123.663 108.241C125.444 107.904 129.576 108.416 129.063 108.185C129.357 108.198 130.444 108.204 130.738 108.241C131.226 108.298 131.663 108.141 132.151 108.21C132.757 108.273 132.901 108.36 133.501 108.435C133.719 108.454 134.119 108.623 134.326 108.66C134.432 108.679 134.782 108.81 134.882 108.835C135.944 109.054 136.532 109.279 137.351 109.941C138.201 110.335 139.776 112.429 140.144 113.116C140.907 114.541 140.569 113.985 140.788 114.866C140.932 115.304 141.051 115.679 141.051 116.148C140.963 116.616 141.019 116.91 140.963 117.31L140.944 117.341V117.348Z" fill="#1B293F"/>
<path d="M175.458 144.094C175.458 142.012 177.277 140.331 179.508 140.331H190.127C192.646 140.331 194.696 142.225 194.696 144.569V154.55C194.696 156.55 192.946 158.175 190.777 158.175H179.221C177.133 158.175 175.439 156.612 175.439 154.681V144.106L175.452 144.094H175.458Z" fill="#1B293F"/>
<path d="M194.827 70.7706V75.8019H194.789V123.846C194.789 124.864 193.971 125.683 192.952 125.683H176.858C175.833 125.683 175.002 124.864 175.002 123.846V75.8019H75.1206V176.221H193.383C194.114 176.221 194.702 176.827 194.702 177.558C194.689 182.196 192.789 186.396 189.721 189.433C186.652 192.471 182.396 194.364 177.708 194.364H69.1831C61.4396 194.364 55.1709 188.146 55.1709 180.458V177.521C55.1709 177.296 55.2272 177.071 55.3397 176.896V70.5269C55.3397 63.408 61.1521 57.6455 68.3269 57.6455H75.1331V57.8893H181.852C189.033 57.8893 194.839 63.6519 194.839 70.7706H194.827Z" fill="#1B293F"/>
<path d="M222.013 47.1688C221.4 46.4063 220.775 45.6563 220.138 44.9125C218.875 43.425 217.575 41.975 216.238 40.55C212.9 36.9875 209.369 33.6312 205.644 30.4812C183.869 12.0875 155.731 1 125 1C94.2688 1 66.0187 12.1312 44.2312 30.5875C42 32.4813 39.8312 34.45 37.7437 36.4938C37.0437 37.175 36.3563 37.8625 35.675 38.5563C32.9438 41.3438 30.35 44.2562 27.8875 47.2875C10.45 68.7812 0 96.1688 0 126C0 155.831 11.0875 184.875 29.4875 206.644C32.0063 209.625 34.6625 212.488 37.45 215.219C40.2375 217.95 43.1438 220.556 46.1688 223.013C67.6813 240.513 95.1125 251 125 251C154.887 251 182.219 240.55 203.706 223.119C209.769 218.206 215.369 212.731 220.413 206.769C238.875 184.988 250.006 156.794 250.006 126.006C250.006 95.2187 239.519 68.6812 222.019 47.175L222.013 47.1688ZM213.444 199.8L199.869 186.225C198.225 194.725 190.769 201.15 181.806 201.206L196.725 216.125C177.044 231.813 152.119 241.181 124.994 241.181C97.8688 241.181 72.8375 231.769 53.1375 216.019L67.9625 201.194C59.0312 201.025 51.65 194.537 50.0938 186.012L36.45 199.656C19.8125 179.688 9.8 154 9.8 125.975C9.8 97.95 19.175 73.925 34.8625 54.2438L49.7937 69.175C49.8562 60.2125 56.2875 52.7625 64.7875 51.1188L51.2 37.5313C71.1875 20.8313 96.925 10.7812 125.006 10.7812C153.087 10.7812 178.712 20.7937 198.687 37.425L185.031 51.0812C193.556 52.6312 200.044 60.0125 200.219 68.9437L215.044 54.1125C230.788 73.8125 240.206 98.7937 240.206 125.969C240.206 153.144 230.156 179.788 213.45 199.775V199.787L213.444 199.8Z" fill="#1B293F"/>
</g>
<defs>
<clipPath id="clip0_372_16509">
<rect width="250" height="250" fill="white" transform="translate(0 1)"/>
</clipPath>
</defs>
</svg>
