<svg width="32" height="32" viewBox="0 0 32 32" fill="none" xmlns="http://www.w3.org/2000/svg">
<g clip-path="url(#clip0_2049_4155)">
<path d="M16.0002 32C24.8368 32 32.0005 24.8368 32.0005 16.0002C32.0005 7.16369 24.8368 0 16.0002 0C7.16367 0 0 7.16322 0 15.9998C0 24.8363 7.16367 31.9995 16.0002 31.9995V32Z" fill="#E8C787"/>
<path d="M16.0004 31.0438C24.3088 31.0438 31.0443 24.3087 31.0443 16.0002C31.0443 7.69165 24.3088 0.956055 16.0004 0.956055C7.69204 0.956055 0.956543 7.69165 0.956543 15.9997C0.956543 24.3078 7.69204 31.0434 16.0004 31.0434V31.0438Z" fill="#0A2845"/>
<path d="M22.9825 11.6742L9.01807 14.1465C9.01807 11.8038 10.6933 9.79957 12.9906 9.39285L22.9825 7.62378V11.6742Z" fill="url(#paint0_linear_2049_4155)"/>
<path d="M22.9825 16.789L12.9906 18.5581C10.9182 18.9248 9.01807 17.324 9.01807 15.211L19.01 13.4419C21.0823 13.0752 22.9825 14.676 22.9825 16.789Z" fill="url(#paint1_linear_2049_4155)"/>
<path d="M19.01 22.6069L9.01807 24.376V20.3256L22.9825 17.8533C22.9825 20.1959 21.3073 22.2002 19.01 22.6069Z" fill="url(#paint2_linear_2049_4155)"/>
</g>
<defs>
<linearGradient id="paint0_linear_2049_4155" x1="9.01807" y1="10.8854" x2="22.9825" y2="10.8854" gradientUnits="userSpaceOnUse">
<stop stop-color="#869FF6"/>
<stop offset="1" stop-color="#D4E0F6"/>
</linearGradient>
<linearGradient id="paint1_linear_2049_4155" x1="9.01807" y1="15.9998" x2="22.9825" y2="15.9998" gradientUnits="userSpaceOnUse">
<stop stop-color="#2E4DF3"/>
<stop offset="1" stop-color="#869FF6"/>
</linearGradient>
<linearGradient id="paint2_linear_2049_4155" x1="9.01807" y1="21.1144" x2="22.9825" y2="21.1144" gradientUnits="userSpaceOnUse">
<stop stop-color="#E5A32E"/>
<stop offset="1" stop-color="#E8C787"/>
</linearGradient>
<clipPath id="clip0_2049_4155">
<rect width="32" height="32" fill="white"/>
</clipPath>
</defs>
</svg>
